<svg id="Layer_1" data-name="Layer 1" xmlns="http://www.w3.org/2000/svg" xmlns:xlink="http://www.w3.org/1999/xlink" viewBox="0 0 853.22 223.03"><defs><style>.cls-1,.cls-2,.cls-3{fill:none;stroke-width:9.4px;}.cls-1,.cls-2,.cls-3,.cls-4,.cls-5,.cls-6{stroke-miterlimit:10;}.cls-1{stroke:url(#linear-gradient);}.cls-2{stroke:url(#linear-gradient-2);}.cls-3{stroke:url(#linear-gradient-3);}.cls-4,.cls-5,.cls-6{fill:#fff;stroke-width:6.27px;}.cls-4{stroke:url(#linear-gradient-4);}.cls-5{stroke:url(#linear-gradient-5);}.cls-6{stroke:url(#linear-gradient-6);}</style><linearGradient id="linear-gradient" x1="505.63" y1="518.53" x2="703.32" y2="518.53" gradientUnits="userSpaceOnUse"><stop offset="0.25" stop-color="#4a54e6"/><stop offset="0.85" stop-color="#6d11bc"/></linearGradient><linearGradient id="linear-gradient-2" x1="718.42" y1="518.53" x2="942.33" y2="518.53" xlink:href="#linear-gradient"/><linearGradient id="linear-gradient-3" x1="960.38" y1="518.38" x2="1156.18" y2="518.38" xlink:href="#linear-gradient"/><linearGradient id="linear-gradient-4" x1="1024.43" y1="518.53" x2="1130.08" y2="518.53" xlink:href="#linear-gradient"/><linearGradient id="linear-gradient-5" x1="1138.54" y1="518.53" x2="1246.84" y2="518.53" xlink:href="#linear-gradient"/><linearGradient id="linear-gradient-6" x1="1253.21" y1="518.53" x2="1358.86" y2="518.53" xlink:href="#linear-gradient"/></defs><path class="cls-1" d="M510.33,622.09V415h40.08V622.09Zm27.41,0V586.44h52.74q20,0,35.06-8.4A59.15,59.15,0,0,0,649,554.33q8.38-15.32,8.39-36.24,0-20.34-8.54-35.51A60.55,60.55,0,0,0,625.25,459q-15-8.4-34.77-8.4H536.85V415h54.22a115.91,115.91,0,0,1,42.58,7.66,103.31,103.31,0,0,1,34.18,21.65,99.59,99.59,0,0,1,22.68,32.86,103.41,103.41,0,0,1,8.1,41.25,104.49,104.49,0,0,1-8.1,41.4,100.16,100.16,0,0,1-22.54,33,101.41,101.41,0,0,1-34,21.66,115.27,115.27,0,0,1-42.28,7.65Z" transform="translate(-505.63 -407.01)"/><path class="cls-2" d="M830.67,625.34a108,108,0,0,1-42.28-8.25,108.56,108.56,0,0,1-57.16-140.7A104.69,104.69,0,0,1,788,419.82a114.39,114.39,0,0,1,84.56,0,104.17,104.17,0,0,1,34,22.69,106.82,106.82,0,0,1-75.87,182.83Zm-.59-37.43q20,0,34.77-8.83A62.43,62.43,0,0,0,888,554.62q8.4-15.61,8.4-36.53a79.59,79.59,0,0,0-4.72-28,63.63,63.63,0,0,0-13.55-21.95,60.57,60.57,0,0,0-20.92-14.29,70.19,70.19,0,0,0-27.11-5q-19.44,0-34.32,8.69a61,61,0,0,0-23.28,24.31q-8.4,15.63-8.4,36.25a80.87,80.87,0,0,0,4.86,28.58,64.23,64.23,0,0,0,13.56,22.09,59.64,59.64,0,0,0,20.92,14.15A69.57,69.57,0,0,0,830.08,587.91Z" transform="translate(-505.63 -407.01)"/><path class="cls-3" d="M1071.45,625a108.43,108.43,0,0,1-42.13-8.1,104.33,104.33,0,0,1-34-22.69,100.46,100.46,0,0,1-22.4-34,116,116,0,0,1,0-83.68,98.92,98.92,0,0,1,22.4-33.89A108,108,0,0,1,1029.17,420a106.43,106.43,0,0,1,42.28-8.25q24.75,0,43.61,8.1a108.2,108.2,0,0,1,33.3,22.25l-27.11,27.1a59.52,59.52,0,0,0-20.92-14.73q-12.37-5.31-28.88-5.3a69.25,69.25,0,0,0-26.37,4.86,59.08,59.08,0,0,0-20.77,14.14,63.23,63.23,0,0,0-13.56,22.1,86.86,86.86,0,0,0,0,56.43,63.5,63.5,0,0,0,13.56,22,61,61,0,0,0,20.77,14.29,67.42,67.42,0,0,0,26.37,5q17.38,0,29.91-5.3a57.36,57.36,0,0,0,21.07-15l27.1,27.11a102.72,102.72,0,0,1-33.59,22.4Q1096.79,625,1071.45,625Z" transform="translate(-505.63 -407.01)"/><path class="cls-4" d="M1045.75,520.63c.39,18.19,13,31,32.55,31,15.5,0,26-8.42,29.48-21.43h18.57c-4.22,23.92-22,38.09-48.43,38.09-30.25,0-50.35-19.91-50.35-49.77s20.1-49.78,50.35-49.78c28.9,0,48.62,17.62,48.43,46.52v5.36Zm61.64-14c-2.87-14-13.59-22.4-29.28-22.4s-27.19,9.38-31,22.4Z" transform="translate(-505.63 -407.01)"/><path class="cls-5" d="M1159.86,551.84v14.54h-18.19V551.45c0-25.65,19.72-32,29.48-32v-1.91c-9.76,0-29.48-6.32-29.48-32V470.67h18.19v14.55c0,11.87,5.74,22,32.92,22s32.74-10.14,32.74-22V470.67h18.18V485.6c0,25.65-19.72,32-29.28,32v1.91c9.56,0,29.28,6.32,29.28,32v14.93h-18.18V551.84c0-11.87-5.55-22-32.74-22S1159.86,540,1159.86,551.84Z" transform="translate(-505.63 -407.01)"/><path class="cls-6" d="M1274.53,520.63c.38,18.19,13,31,32.54,31,15.51,0,26-8.42,29.48-21.43h18.57c-4.21,23.92-22,38.09-48.43,38.09-30.25,0-50.35-19.91-50.35-49.77s20.1-49.78,50.35-49.78c28.91,0,48.62,17.62,48.43,46.52v5.36Zm61.64-14c-2.87-14-13.59-22.4-29.29-22.4s-27.18,9.38-31,22.4Z" transform="translate(-505.63 -407.01)"/></svg>