<svg xmlns="http://www.w3.org/2000/svg" viewBox="0 0 1920 1080" preserveAspectRatio="xMidYMid slice">
  <!-- Base dark gradient background -->
  <defs>
    <linearGradient id="baseGradient" x1="0%" y1="0%" x2="100%" y2="100%">
      <stop offset="0%" stop-color="#0F0F1E" />
      <stop offset="100%" stop-color="#1A1A35" />
    </linearGradient>
    
    <!-- Glowing orb gradients -->
    <radialGradient id="glowPurple" cx="50%" cy="50%" r="50%" fx="50%" fy="50%">
      <stop offset="0%" stop-color="#900BFF" stop-opacity="0.6" />
      <stop offset="80%" stop-color="#900BFF" stop-opacity="0.1" />
      <stop offset="100%" stop-color="#900BFF" stop-opacity="0" />
    </radialGradient>
    
    <radialGradient id="glowBlue" cx="50%" cy="50%" r="50%" fx="50%" fy="50%">
      <stop offset="0%" stop-color="#4E36FF" stop-opacity="0.6" />
      <stop offset="80%" stop-color="#4E36FF" stop-opacity="0.1" />
      <stop offset="100%" stop-color="#4E36FF" stop-opacity="0" />
    </radialGradient>
    
    <!-- Grid pattern -->
    <pattern id="gridPattern" x="0" y="0" width="50" height="50" patternUnits="userSpaceOnUse">
      <rect x="0" y="0" width="50" height="50" fill="none" />
      <path d="M 50 0 L 0 0 0 50" stroke-width="0.5" stroke="#4E36FF" stroke-opacity="0.1" fill="none" />
    </pattern>
    
    <!-- Digital circuit pattern -->
    <pattern id="circuitPattern" x="0" y="0" width="200" height="200" patternUnits="userSpaceOnUse">
      <path d="M10,10 L50,10 L50,50 L90,50 L90,10 L130,10 L130,90 L170,90 L170,130 L130,130 L130,170 L90,170 L90,130 L50,130 L50,170 L10,170 L10,90 Z" 
            stroke="#900BFF" stroke-opacity="0.15" stroke-width="1.5" fill="none" />
      <circle cx="10" cy="10" r="3" fill="#900BFF" fill-opacity="0.2" />
      <circle cx="50" cy="10" r="3" fill="#900BFF" fill-opacity="0.2" />
      <circle cx="90" cy="10" r="3" fill="#900BFF" fill-opacity="0.2" />
      <circle cx="130" cy="10" r="3" fill="#900BFF" fill-opacity="0.2" />
      <circle cx="10" cy="90" r="3" fill="#900BFF" fill-opacity="0.2" />
      <circle cx="170" cy="90" r="3" fill="#900BFF" fill-opacity="0.2" />
      <circle cx="130" cy="90" r="3" fill="#900BFF" fill-opacity="0.2" />
      <circle cx="170" cy="130" r="3" fill="#900BFF" fill-opacity="0.2" />
      <circle cx="130" cy="130" r="3" fill="#900BFF" fill-opacity="0.2" />
      <circle cx="90" cy="130" r="3" fill="#900BFF" fill-opacity="0.2" />
      <circle cx="50" cy="130" r="3" fill="#900BFF" fill-opacity="0.2" />
      <circle cx="130" cy="170" r="3" fill="#900BFF" fill-opacity="0.2" />
      <circle cx="90" cy="170" r="3" fill="#900BFF" fill-opacity="0.2" />
      <circle cx="50" cy="170" r="3" fill="#900BFF" fill-opacity="0.2" />
      <circle cx="10" cy="170" r="3" fill="#900BFF" fill-opacity="0.2" />
    </pattern>
    
    <!-- Abstract data flow lines -->
    <linearGradient id="flowGradient" x1="0%" y1="0%" x2="100%" y2="0%">
      <stop offset="0%" stop-color="#4E36FF" stop-opacity="0" />
      <stop offset="50%" stop-color="#4E36FF" stop-opacity="0.3" />
      <stop offset="100%" stop-color="#4E36FF" stop-opacity="0" />
    </linearGradient>
  </defs>
  
  <!-- Base background -->
  <rect width="100%" height="100%" fill="url(#baseGradient)" />
  
  <!-- Grid overlay -->
  <rect width="100%" height="100%" fill="url(#gridPattern)" />
  
  <!-- Circuit pattern overlay -->
  <rect width="100%" height="100%" fill="url(#circuitPattern)" />
  
  <!-- Abstract glowing orbs -->
  <circle cx="70%" cy="30%" r="400" fill="url(#glowPurple)" opacity="0.5" />
  <circle cx="20%" cy="70%" r="350" fill="url(#glowBlue)" opacity="0.4" />
  <circle cx="80%" cy="80%" r="200" fill="url(#glowPurple)" opacity="0.3" />
  
  <!-- Data flow lines -->
  <path d="M0,300 C500,280 700,400 1920,320" stroke="url(#flowGradient)" stroke-width="4" fill="none" />
  <path d="M0,500 C600,480 1000,600 1920,450" stroke="url(#flowGradient)" stroke-width="3" fill="none" />
  <path d="M0,700 C400,750 1200,650 1920,730" stroke="url(#flowGradient)" stroke-width="5" fill="none" />
  
  <!-- Subtle particles -->
  <g fill="#FFFFFF" opacity="0.5">
    <circle cx="150" cy="250" r="1" />
    <circle cx="550" cy="150" r="0.8" />
    <circle cx="950" cy="350" r="1.2" />
    <circle cx="1350" cy="250" r="0.9" />
    <circle cx="1750" cy="450" r="1" />
    <circle cx="250" cy="550" r="0.7" />
    <circle cx="650" cy="650" r="1.1" />
    <circle cx="1050" cy="450" r="0.8" />
    <circle cx="1450" cy="550" r="1" />
    <circle cx="1850" cy="650" r="0.9" />
    <circle cx="350" cy="750" r="1" />
    <circle cx="750" cy="850" r="0.8" />
    <circle cx="1150" cy="750" r="1.2" />
    <circle cx="1550" cy="850" r="0.7" />
    <circle cx="1950" cy="750" r="1" />
  </g>
  
  <!-- Abstract AI/Tech symbols -->
  <g fill="none" stroke="#900BFF" stroke-opacity="0.3" stroke-width="1.5">
    <path d="M1600,200 L1650,200 L1650,250 L1700,250" />
    <path d="M1620,220 L1630,220 L1630,230 L1640,230" />
    <path d="M250,800 L300,800 L300,850 L350,850" />
    <path d="M270,820 L280,820 L280,830 L290,830" />
  </g>
  
  <!-- Neural network nodes with connections -->
  <g>
    <circle cx="1500" cy="300" r="4" fill="#4E36FF" opacity="0.8" />
    <circle cx="1550" cy="350" r="4" fill="#4E36FF" opacity="0.8" />
    <circle cx="1600" cy="300" r="4" fill="#4E36FF" opacity="0.8" />
    <circle cx="1550" cy="250" r="4" fill="#4E36FF" opacity="0.8" />
    
    <line x1="1500" y1="300" x2="1550" y2="350" stroke="#4E36FF" stroke-width="1" opacity="0.5" />
    <line x1="1550" y1="350" x2="1600" y2="300" stroke="#4E36FF" stroke-width="1" opacity="0.5" />
    <line x1="1600" y1="300" x2="1550" y2="250" stroke="#4E36FF" stroke-width="1" opacity="0.5" />
    <line x1="1550" y1="250" x2="1500" y2="300" stroke="#4E36FF" stroke-width="1" opacity="0.5" />
    <line x1="1500" y1="300" x2="1600" y2="300" stroke="#4E36FF" stroke-width="1" opacity="0.5" />
    <line x1="1550" y1="250" x2="1550" y2="350" stroke="#4E36FF" stroke-width="1" opacity="0.5" />
  </g>
  
  <g>
    <circle cx="400" cy="400" r="4" fill="#900BFF" opacity="0.8" />
    <circle cx="450" cy="450" r="4" fill="#900BFF" opacity="0.8" />
    <circle cx="500" cy="400" r="4" fill="#900BFF" opacity="0.8" />
    <circle cx="450" cy="350" r="4" fill="#900BFF" opacity="0.8" />
    
    <line x1="400" y1="400" x2="450" y2="450" stroke="#900BFF" stroke-width="1" opacity="0.5" />
    <line x1="450" y1="450" x2="500" y2="400" stroke="#900BFF" stroke-width="1" opacity="0.5" />
    <line x1="500" y1="400" x2="450" y2="350" stroke="#900BFF" stroke-width="1" opacity="0.5" />
    <line x1="450" y1="350" x2="400" y2="400" stroke="#900BFF" stroke-width="1" opacity="0.5" />
    <line x1="400" y1="400" x2="500" y2="400" stroke="#900BFF" stroke-width="1" opacity="0.5" />
    <line x1="450" y1="350" x2="450" y2="450" stroke="#900BFF" stroke-width="1" opacity="0.5" />
  </g>
  
  <!-- Overlay gradient for better text visibility -->
  <linearGradient id="overlayGradient" x1="0%" y1="0%" x2="0%" y2="100%">
    <stop offset="0%" stop-color="#0F0F1E" stop-opacity="0.7" />
    <stop offset="50%" stop-color="#0F0F1E" stop-opacity="0.2" />
    <stop offset="100%" stop-color="#0F0F1E" stop-opacity="0.7" />
  </linearGradient>
  <rect width="100%" height="100%" fill="url(#overlayGradient)" />
</svg>